<svg width="25" height="25" viewBox="0 0 25 25" fill="none" xmlns="http://www.w3.org/2000/svg">
<path d="M12.5 0C5.59687 0 0 5.59687 0 12.5C0 19.4031 5.59687 25 12.5 25C19.4031 25 25 19.4031 25 12.5C25 5.59687 19.4031 0 12.5 0ZM18.2906 9.04219L12.3031 18.1938C12.3016 18.1953 12.2984 18.1969 12.2984 18.1984C12.2672 18.2453 12.25 18.2984 12.2109 18.3422C12.1563 18.4016 12.0859 18.4328 12.0234 18.4781C12.0078 18.4891 11.9922 18.5016 11.975 18.5125C11.8781 18.5734 11.7781 18.6141 11.6688 18.6406C11.6328 18.65 11.6 18.6594 11.5625 18.6656C11.4755 18.6776 11.3873 18.6786 11.3 18.6687C11.2383 18.6649 11.1772 18.6554 11.1172 18.6406C11.0553 18.622 10.9952 18.5979 10.9375 18.5687C10.8875 18.5453 10.8344 18.5391 10.7875 18.5094C10.7531 18.4875 10.7344 18.4531 10.7047 18.4266C10.6922 18.4156 10.6766 18.4125 10.6641 18.4016L7.17813 15.1781C6.9715 14.9797 6.85095 14.7082 6.8424 14.4218C6.83385 14.1355 6.93797 13.8572 7.13239 13.6469C7.32681 13.4365 7.59601 13.3108 7.88213 13.2967C8.16824 13.2827 8.44844 13.3815 8.6625 13.5719L11.1859 15.9063L16.4594 7.84531C16.6181 7.60247 16.8668 7.43263 17.1507 7.37315C17.4347 7.31366 17.7306 7.36941 17.9734 7.52812C18.2163 7.68684 18.3861 7.93552 18.4456 8.21946C18.5051 8.50341 18.4493 8.79935 18.2906 9.04219Z" fill="#00D9F5"/>
</svg>
