<svg width="55" height="55" viewBox="0 0 55 55" fill="none" xmlns="http://www.w3.org/2000/svg">
<path d="M34.8932 20.1468L31.0611 16.3135C30.9356 16.187 30.7864 16.0866 30.622 16.0181C30.4576 15.9496 30.2812 15.9143 30.1031 15.9143C29.9249 15.9143 29.7486 15.9496 29.5841 16.0181C29.4197 16.0866 29.2705 16.187 29.145 16.3135C28.8937 16.5664 28.7527 16.9085 28.7527 17.2651C28.7527 17.6217 28.8937 17.9638 29.145 18.2167L32.0056 21.0781L21.076 32.0108L18.2154 29.1494C17.9626 28.898 17.6206 28.7569 17.2642 28.7569C16.9077 28.7569 16.5657 28.898 16.3129 29.1494C16.1864 29.2749 16.086 29.4242 16.0175 29.5886C15.949 29.7531 15.9137 29.9295 15.9137 30.1077C15.9137 30.2859 15.949 30.4623 16.0175 30.6268C16.086 30.7913 16.1864 30.9405 16.3129 31.066L20.1045 34.8587L23.8961 38.6515C24.0211 38.779 24.1701 38.8805 24.3346 38.95C24.499 39.0195 24.6756 39.0556 24.8542 39.0564C25.1222 39.0579 25.3846 38.9796 25.6079 38.8314C25.8313 38.6832 26.0054 38.4718 26.1082 38.2242C26.211 37.9766 26.2377 37.704 26.185 37.4412C26.1323 37.1783 26.0025 36.9371 25.8122 36.7484L22.9921 33.9274L33.9217 22.9947L36.7823 25.8561C36.9081 25.981 37.0573 26.08 37.2213 26.1473C37.3853 26.2146 37.561 26.2489 37.7383 26.2483C37.9156 26.2476 38.091 26.2121 38.2546 26.1436C38.4182 26.0752 38.5666 25.9752 38.6916 25.8493C38.8165 25.7235 38.9154 25.5743 38.9827 25.4102C39.0499 25.2461 39.0842 25.0704 39.0836 24.893C39.083 24.7157 39.0475 24.5402 38.979 24.3766C38.9106 24.213 38.8106 24.0644 38.6848 23.9395L34.8932 20.1468ZM16.3129 34.8722C16.0588 34.6181 15.7142 34.4753 15.3549 34.4753C14.9955 34.4753 14.6509 34.6181 14.3968 34.8722C14.1427 35.1264 14 35.4711 14 35.8305C14 36.19 14.1427 36.5347 14.3968 36.7888L18.2154 40.6086C18.3415 40.7337 18.491 40.8326 18.6554 40.8998C18.8198 40.967 18.9959 41.001 19.1735 41C19.351 41.001 19.5271 40.967 19.6915 40.8998C19.8559 40.8326 20.0054 40.7337 20.1315 40.6086C20.258 40.4831 20.3583 40.3338 20.4268 40.1693C20.4954 40.0049 20.5306 39.8284 20.5306 39.6503C20.5306 39.4721 20.4954 39.2957 20.4268 39.1312C20.3583 38.9667 20.258 38.8174 20.1315 38.692L16.3129 34.8722ZM40.6009 18.2167L36.7823 14.3969C36.6564 14.2711 36.5071 14.1713 36.3427 14.1032C36.1783 14.0351 36.0022 14 35.8242 14C35.6463 14 35.4701 14.0351 35.3058 14.1032C35.1414 14.1713 34.992 14.2711 34.8662 14.3969C34.7404 14.5228 34.6406 14.6722 34.5725 14.8366C34.5044 15.001 34.4694 15.1773 34.4694 15.3552C34.4694 15.5332 34.5044 15.7094 34.5725 15.8739C34.6406 16.0383 34.7404 16.1877 34.8662 16.3135L38.6848 20.1333C38.8103 20.2598 38.9595 20.3602 39.1239 20.4287C39.2884 20.4972 39.4647 20.5325 39.6428 20.5325C39.821 20.5325 39.9973 20.4972 40.1618 20.4287C40.3262 20.3602 40.4754 20.2598 40.6009 20.1333C40.7273 20.0078 40.8277 19.8585 40.8962 19.694C40.9647 19.5296 41 19.3531 41 19.175C41 18.9968 40.9647 18.8204 40.8962 18.6559C40.8277 18.4914 40.7273 18.3421 40.6009 18.2167Z" fill="white"/>
<circle cx="27.5" cy="27.5" r="26.5" stroke="white" stroke-width="2"/>
</svg>
