<svg width="55" height="55" viewBox="0 0 55 55" fill="none" xmlns="http://www.w3.org/2000/svg">
<circle cx="27.5" cy="27.5" r="26.5" stroke="white" stroke-width="2"/>
<path d="M27.9976 13C25.9224 13.0017 23.8735 13.4643 21.999 14.3546C20.1245 15.2448 18.4711 16.5404 17.1585 18.1477C15.8459 19.755 14.9068 21.6339 14.409 23.6485C13.9112 25.6631 13.8672 27.7631 14.2802 29.7968C14.3477 30.1275 14.5438 30.4179 14.8254 30.604C15.107 30.7901 15.451 30.8568 15.7818 30.7893C16.1125 30.7218 16.4029 30.5257 16.589 30.2441C16.7751 29.9625 16.8418 29.6185 16.7743 29.2878C16.6221 28.5338 16.5454 27.7665 16.5453 26.9973C16.5427 24.3993 17.4226 21.8774 19.041 19.845C20.6593 17.8126 22.92 16.3902 25.4525 15.8108C27.9851 15.2314 30.6394 15.5295 32.9804 16.6562C35.3214 17.7828 37.2103 19.6712 38.3375 22.0119C39.4648 24.3527 39.7635 27.0069 39.1848 29.5396C38.606 32.0723 37.1842 34.3334 35.1522 35.9522C33.1201 37.571 30.5985 38.4516 28.0005 38.4497C25.4025 38.4478 22.8822 37.5634 20.8526 35.9416L21.2623 35.5318C21.4402 35.3539 21.5614 35.1272 21.6105 34.8804C21.6595 34.6336 21.6343 34.3777 21.5381 34.1453C21.4418 33.9128 21.2787 33.7141 21.0695 33.5742C20.8603 33.4344 20.6143 33.3598 20.3627 33.3597H17.8177C17.4803 33.3597 17.1566 33.4938 16.918 33.7324C16.6793 33.971 16.5453 34.2947 16.5453 34.6322V37.1771C16.5452 37.4288 16.6197 37.6748 16.7595 37.8841C16.8992 38.0934 17.0979 38.2565 17.3304 38.3529C17.4848 38.4173 17.6505 38.4502 17.8177 38.4496C18.1552 38.4496 18.4788 38.3154 18.7174 38.0768L19.0431 37.751C20.7705 39.1903 22.8192 40.1922 25.0158 40.6721C27.2124 41.1519 29.4922 41.0956 31.6624 40.5078C33.8326 39.92 35.8293 38.8181 37.4835 37.2952C39.1376 35.7724 40.4006 33.8735 41.1655 31.7592C41.9304 29.6449 42.1747 27.3775 41.8778 25.1488C41.5809 22.9201 40.7514 20.7957 39.4597 18.9554C38.1679 17.1152 36.4518 15.6131 34.4567 14.5765C32.4615 13.5399 30.246 12.9991 27.9976 13Z" fill="white"/>
<path d="M27.9976 18.09C27.6601 18.09 27.3364 18.224 27.0978 18.4627C26.8592 18.7013 26.7251 19.025 26.7251 19.3624V26.9973C26.7251 27.3348 26.8592 27.6585 27.0978 27.8971C27.3364 28.1358 27.6601 28.2698 27.9976 28.2698H34.36C34.6975 28.2698 35.0211 28.1358 35.2598 27.8971C35.4984 27.6585 35.6325 27.3348 35.6325 26.9973C35.6325 26.6599 35.4984 26.3362 35.2598 26.0976C35.0211 25.8589 34.6975 25.7249 34.36 25.7249H29.2701V19.3624C29.2701 19.025 29.136 18.7013 28.8974 18.4627C28.6587 18.224 28.3351 18.09 27.9976 18.09Z" fill="white"/>
</svg>
