<svg width="55" height="55" viewBox="0 0 55 55" fill="none" xmlns="http://www.w3.org/2000/svg">
<circle cx="27.5" cy="27.5" r="26.5" stroke="white" stroke-width="2"/>
<path d="M27.9351 26C30.4203 26 32.4351 23.9853 32.4351 21.5C32.4351 19.0147 30.4203 17 27.9351 17C25.4498 17 23.4351 19.0147 23.4351 21.5C23.4351 23.9853 25.4498 26 27.9351 26Z" fill="white"/>
<path d="M19 32.253V32.747C19.8861 34.3394 21.1816 35.6661 22.7525 36.5898C24.3234 37.5134 26.1127 38.0004 27.935 38.0004C29.7573 38.0004 31.5466 37.5134 33.1175 36.5898C34.6884 35.6661 35.9839 34.3394 36.87 32.747V32.253C35.6977 30.1953 33.8589 28.5988 31.657 27.727L30.875 28.51L28.289 31.096H27.582L24.995 28.51L24.212 27.728C22.0107 28.5998 20.1723 30.1959 19 32.253Z" fill="white"/>
<path d="M25.2621 27.363L26.1061 28.207L27.9351 30.035L29.7641 28.206L30.6071 27.363C28.8582 26.8794 27.0109 26.8794 25.2621 27.363Z" fill="white"/>
</svg>
